G04 #@! TF.GenerationSoftware,KiCad,Pcbnew,(5.1.4)-1*
G04 #@! TF.CreationDate,2019-12-22T22:02:26+01:00*
G04 #@! TF.ProjectId,keyboard3,6b657962-6f61-4726-9433-2e6b69636164,rev?*
G04 #@! TF.SameCoordinates,Original*
G04 #@! TF.FileFunction,Copper,L1,Top*
G04 #@! TF.FilePolarity,Positive*
%FSLAX46Y46*%
G04 Gerber Fmt 4.6, Leading zero omitted, Abs format (unit mm)*
G04 Created by KiCad (PCBNEW (5.1.4)-1) date 2019-12-22 22:02:26*
%MOMM*%
%LPD*%
G04 APERTURE LIST*
%ADD10C,1.700000*%
%ADD11C,2.250000*%
%ADD12C,2.250000*%
%ADD13C,0.250000*%
G04 APERTURE END LIST*
D10*
X71451250Y-77921250D03*
X68911250Y-77921250D03*
X63831250Y-77921250D03*
X66371250Y-77921250D03*
X58751250Y-77921250D03*
X61291250Y-77921250D03*
X53671250Y-77921250D03*
X46051250Y-77921250D03*
X51131250Y-77921250D03*
X48591250Y-77921250D03*
X43511250Y-77921250D03*
X40971250Y-77921250D03*
X38431250Y-77921250D03*
X33351250Y-77921250D03*
X35891250Y-77921250D03*
X30811250Y-77921250D03*
X28271250Y-77921250D03*
X58751250Y-62706250D03*
X71451250Y-62706250D03*
X63831250Y-62706250D03*
X68911250Y-62706250D03*
X66371250Y-62706250D03*
X61291250Y-62706250D03*
X53671250Y-62706250D03*
X51131250Y-62706250D03*
X48591250Y-62706250D03*
X46051250Y-62706250D03*
X43511250Y-62706250D03*
X40971250Y-62706250D03*
X38431250Y-62706250D03*
X35891250Y-62706250D03*
X33351250Y-62706250D03*
X30811250Y-62706250D03*
X25731250Y-62706250D03*
X28271250Y-62706250D03*
X25731250Y-77921250D03*
D11*
X41156250Y-47593750D03*
X40501251Y-48323750D03*
D12*
X39846250Y-49053750D02*
X41156252Y-47593750D01*
D11*
X46196250Y-46513750D03*
X46176250Y-46803750D03*
D12*
X46156250Y-47093750D02*
X46196250Y-46513750D01*
D11*
X60206250Y-47593750D03*
X59551251Y-48323750D03*
D12*
X58896250Y-49053750D02*
X60206252Y-47593750D01*
D11*
X65246250Y-46513750D03*
X65226250Y-46803750D03*
D12*
X65206250Y-47093750D02*
X65246250Y-46513750D01*
D11*
X79256250Y-47593750D03*
X78601251Y-48323750D03*
D12*
X77946250Y-49053750D02*
X79256252Y-47593750D01*
D11*
X84296250Y-46513750D03*
X84276250Y-46803750D03*
D12*
X84256250Y-47093750D02*
X84296250Y-46513750D01*
D11*
X98306250Y-47593750D03*
X97651251Y-48323750D03*
D12*
X96996250Y-49053750D02*
X98306252Y-47593750D01*
D11*
X103346250Y-46513750D03*
X103326250Y-46803750D03*
D12*
X103306250Y-47093750D02*
X103346250Y-46513750D01*
D11*
X117356250Y-47593750D03*
X116701251Y-48323750D03*
D12*
X116046250Y-49053750D02*
X117356252Y-47593750D01*
D11*
X122396250Y-46513750D03*
X122376250Y-46803750D03*
D12*
X122356250Y-47093750D02*
X122396250Y-46513750D01*
D11*
X136406250Y-47593750D03*
X135751251Y-48323750D03*
D12*
X135096250Y-49053750D02*
X136406252Y-47593750D01*
D11*
X141446250Y-46513750D03*
X141426250Y-46803750D03*
D12*
X141406250Y-47093750D02*
X141446250Y-46513750D01*
D11*
X155456250Y-47593750D03*
X154801251Y-48323750D03*
D12*
X154146250Y-49053750D02*
X155456252Y-47593750D01*
D11*
X160496250Y-46513750D03*
X160476250Y-46803750D03*
D12*
X160456250Y-47093750D02*
X160496250Y-46513750D01*
D11*
X174506250Y-47593750D03*
X173851251Y-48323750D03*
D12*
X173196250Y-49053750D02*
X174506252Y-47593750D01*
D11*
X179546250Y-46513750D03*
X179526250Y-46803750D03*
D12*
X179506250Y-47093750D02*
X179546250Y-46513750D01*
D11*
X193556250Y-47593750D03*
X192901251Y-48323750D03*
D12*
X192246250Y-49053750D02*
X193556252Y-47593750D01*
D11*
X198596250Y-46513750D03*
X198576250Y-46803750D03*
D12*
X198556250Y-47093750D02*
X198596250Y-46513750D01*
D11*
X212606250Y-47593750D03*
X211951251Y-48323750D03*
D12*
X211296250Y-49053750D02*
X212606252Y-47593750D01*
D11*
X217646250Y-46513750D03*
X217626250Y-46803750D03*
D12*
X217606250Y-47093750D02*
X217646250Y-46513750D01*
D11*
X231656250Y-47593750D03*
X231001251Y-48323750D03*
D12*
X230346250Y-49053750D02*
X231656252Y-47593750D01*
D11*
X236696250Y-46513750D03*
X236676250Y-46803750D03*
D12*
X236656250Y-47093750D02*
X236696250Y-46513750D01*
D11*
X250706250Y-47593750D03*
X250051251Y-48323750D03*
D12*
X249396250Y-49053750D02*
X250706252Y-47593750D01*
D11*
X255746250Y-46513750D03*
X255726250Y-46803750D03*
D12*
X255706250Y-47093750D02*
X255746250Y-46513750D01*
D11*
X31631250Y-66643750D03*
X30976251Y-67373750D03*
D12*
X30321250Y-68103750D02*
X31631252Y-66643750D01*
D11*
X36671250Y-65563750D03*
X36651250Y-65853750D03*
D12*
X36631250Y-66143750D02*
X36671250Y-65563750D01*
D11*
X50681250Y-66643750D03*
X50026251Y-67373750D03*
D12*
X49371250Y-68103750D02*
X50681252Y-66643750D01*
D11*
X55721250Y-65563750D03*
X55701250Y-65853750D03*
D12*
X55681250Y-66143750D02*
X55721250Y-65563750D01*
D11*
X69731250Y-66643750D03*
X69076251Y-67373750D03*
D12*
X68421250Y-68103750D02*
X69731252Y-66643750D01*
D11*
X74771250Y-65563750D03*
X74751250Y-65853750D03*
D12*
X74731250Y-66143750D02*
X74771250Y-65563750D01*
D11*
X88781250Y-66643750D03*
X88126251Y-67373750D03*
D12*
X87471250Y-68103750D02*
X88781252Y-66643750D01*
D11*
X93821250Y-65563750D03*
X93801250Y-65853750D03*
D12*
X93781250Y-66143750D02*
X93821250Y-65563750D01*
D11*
X107831250Y-66643750D03*
X107176251Y-67373750D03*
D12*
X106521250Y-68103750D02*
X107831252Y-66643750D01*
D11*
X112871250Y-65563750D03*
X112851250Y-65853750D03*
D12*
X112831250Y-66143750D02*
X112871250Y-65563750D01*
D11*
X126881250Y-66643750D03*
X126226251Y-67373750D03*
D12*
X125571250Y-68103750D02*
X126881252Y-66643750D01*
D11*
X131921250Y-65563750D03*
X131901250Y-65853750D03*
D12*
X131881250Y-66143750D02*
X131921250Y-65563750D01*
D11*
X145931250Y-66643750D03*
X145276251Y-67373750D03*
D12*
X144621250Y-68103750D02*
X145931252Y-66643750D01*
D11*
X150971250Y-65563750D03*
X150951250Y-65853750D03*
D12*
X150931250Y-66143750D02*
X150971250Y-65563750D01*
D11*
X164981250Y-66643750D03*
X164326251Y-67373750D03*
D12*
X163671250Y-68103750D02*
X164981252Y-66643750D01*
D11*
X170021250Y-65563750D03*
X170001250Y-65853750D03*
D12*
X169981250Y-66143750D02*
X170021250Y-65563750D01*
D11*
X184031250Y-66643750D03*
X183376251Y-67373750D03*
D12*
X182721250Y-68103750D02*
X184031252Y-66643750D01*
D11*
X189071250Y-65563750D03*
X189051250Y-65853750D03*
D12*
X189031250Y-66143750D02*
X189071250Y-65563750D01*
D11*
X203081250Y-66643750D03*
X202426251Y-67373750D03*
D12*
X201771250Y-68103750D02*
X203081252Y-66643750D01*
D11*
X208121250Y-65563750D03*
X208101250Y-65853750D03*
D12*
X208081250Y-66143750D02*
X208121250Y-65563750D01*
D11*
X222131250Y-66643750D03*
X221476251Y-67373750D03*
D12*
X220821250Y-68103750D02*
X222131252Y-66643750D01*
D11*
X227171250Y-65563750D03*
X227151250Y-65853750D03*
D12*
X227131250Y-66143750D02*
X227171250Y-65563750D01*
D11*
X241181250Y-66643750D03*
X240526251Y-67373750D03*
D12*
X239871250Y-68103750D02*
X241181252Y-66643750D01*
D11*
X246221250Y-65563750D03*
X246201250Y-65853750D03*
D12*
X246181250Y-66143750D02*
X246221250Y-65563750D01*
D11*
X260231250Y-66643750D03*
X259576251Y-67373750D03*
D12*
X258921250Y-68103750D02*
X260231252Y-66643750D01*
D11*
X265271250Y-65563750D03*
X265251250Y-65853750D03*
D12*
X265231250Y-66143750D02*
X265271250Y-65563750D01*
D11*
X22106250Y-85693750D03*
X21451251Y-86423750D03*
D12*
X20796250Y-87153750D02*
X22106252Y-85693750D01*
D11*
X27146250Y-84613750D03*
X27126250Y-84903750D03*
D12*
X27106250Y-85193750D02*
X27146250Y-84613750D01*
D11*
X41156250Y-85693750D03*
X40501251Y-86423750D03*
D12*
X39846250Y-87153750D02*
X41156252Y-85693750D01*
D11*
X46196250Y-84613750D03*
X46176250Y-84903750D03*
D12*
X46156250Y-85193750D02*
X46196250Y-84613750D01*
D11*
X60206250Y-85693750D03*
X59551251Y-86423750D03*
D12*
X58896250Y-87153750D02*
X60206252Y-85693750D01*
D11*
X65246250Y-84613750D03*
X65226250Y-84903750D03*
D12*
X65206250Y-85193750D02*
X65246250Y-84613750D01*
D11*
X79256250Y-85693750D03*
X78601251Y-86423750D03*
D12*
X77946250Y-87153750D02*
X79256252Y-85693750D01*
D11*
X84296250Y-84613750D03*
X84276250Y-84903750D03*
D12*
X84256250Y-85193750D02*
X84296250Y-84613750D01*
D11*
X98306250Y-85693750D03*
X97651251Y-86423750D03*
D12*
X96996250Y-87153750D02*
X98306252Y-85693750D01*
D11*
X103346250Y-84613750D03*
X103326250Y-84903750D03*
D12*
X103306250Y-85193750D02*
X103346250Y-84613750D01*
D11*
X117356250Y-85693750D03*
X116701251Y-86423750D03*
D12*
X116046250Y-87153750D02*
X117356252Y-85693750D01*
D11*
X122396250Y-84613750D03*
X122376250Y-84903750D03*
D12*
X122356250Y-85193750D02*
X122396250Y-84613750D01*
D11*
X136406250Y-85693750D03*
X135751251Y-86423750D03*
D12*
X135096250Y-87153750D02*
X136406252Y-85693750D01*
D11*
X141446250Y-84613750D03*
X141426250Y-84903750D03*
D12*
X141406250Y-85193750D02*
X141446250Y-84613750D01*
D11*
X155456250Y-85693750D03*
X154801251Y-86423750D03*
D12*
X154146250Y-87153750D02*
X155456252Y-85693750D01*
D11*
X160496250Y-84613750D03*
X160476250Y-84903750D03*
D12*
X160456250Y-85193750D02*
X160496250Y-84613750D01*
D11*
X174506250Y-85693750D03*
X173851251Y-86423750D03*
D12*
X173196250Y-87153750D02*
X174506252Y-85693750D01*
D11*
X179546250Y-84613750D03*
X179526250Y-84903750D03*
D12*
X179506250Y-85193750D02*
X179546250Y-84613750D01*
D11*
X193556250Y-85693750D03*
X192901251Y-86423750D03*
D12*
X192246250Y-87153750D02*
X193556252Y-85693750D01*
D11*
X198596250Y-84613750D03*
X198576250Y-84903750D03*
D12*
X198556250Y-85193750D02*
X198596250Y-84613750D01*
D11*
X212606250Y-85693750D03*
X211951251Y-86423750D03*
D12*
X211296250Y-87153750D02*
X212606252Y-85693750D01*
D11*
X217646250Y-84613750D03*
X217626250Y-84903750D03*
D12*
X217606250Y-85193750D02*
X217646250Y-84613750D01*
D11*
X231656250Y-85693750D03*
X231001251Y-86423750D03*
D12*
X230346250Y-87153750D02*
X231656252Y-85693750D01*
D11*
X236696250Y-84613750D03*
X236676250Y-84903750D03*
D12*
X236656250Y-85193750D02*
X236696250Y-84613750D01*
D11*
X250706250Y-85693750D03*
X250051251Y-86423750D03*
D12*
X249396250Y-87153750D02*
X250706252Y-85693750D01*
D11*
X255746250Y-84613750D03*
X255726250Y-84903750D03*
D12*
X255706250Y-85193750D02*
X255746250Y-84613750D01*
D11*
X269756250Y-85693750D03*
X269101251Y-86423750D03*
D12*
X268446250Y-87153750D02*
X269756252Y-85693750D01*
D11*
X274796250Y-84613750D03*
X274776250Y-84903750D03*
D12*
X274756250Y-85193750D02*
X274796250Y-84613750D01*
D11*
X31631250Y-104743750D03*
X30976251Y-105473750D03*
D12*
X30321250Y-106203750D02*
X31631252Y-104743750D01*
D11*
X36671250Y-103663750D03*
X36651250Y-103953750D03*
D12*
X36631250Y-104243750D02*
X36671250Y-103663750D01*
D11*
X50681250Y-104743750D03*
X50026251Y-105473750D03*
D12*
X49371250Y-106203750D02*
X50681252Y-104743750D01*
D11*
X55721250Y-103663750D03*
X55701250Y-103953750D03*
D12*
X55681250Y-104243750D02*
X55721250Y-103663750D01*
D11*
X69731250Y-104743750D03*
X69076251Y-105473750D03*
D12*
X68421250Y-106203750D02*
X69731252Y-104743750D01*
D11*
X74771250Y-103663750D03*
X74751250Y-103953750D03*
D12*
X74731250Y-104243750D02*
X74771250Y-103663750D01*
D11*
X88781250Y-104743750D03*
X88126251Y-105473750D03*
D12*
X87471250Y-106203750D02*
X88781252Y-104743750D01*
D11*
X93821250Y-103663750D03*
X93801250Y-103953750D03*
D12*
X93781250Y-104243750D02*
X93821250Y-103663750D01*
D11*
X107831250Y-104743750D03*
X107176251Y-105473750D03*
D12*
X106521250Y-106203750D02*
X107831252Y-104743750D01*
D11*
X112871250Y-103663750D03*
X112851250Y-103953750D03*
D12*
X112831250Y-104243750D02*
X112871250Y-103663750D01*
D11*
X126881250Y-104743750D03*
X126226251Y-105473750D03*
D12*
X125571250Y-106203750D02*
X126881252Y-104743750D01*
D11*
X131921250Y-103663750D03*
X131901250Y-103953750D03*
D12*
X131881250Y-104243750D02*
X131921250Y-103663750D01*
D11*
X145931970Y-104743590D03*
X145276971Y-105473590D03*
D12*
X144621970Y-106203590D02*
X145931972Y-104743590D01*
D11*
X150971970Y-103663590D03*
X150951970Y-103953590D03*
D12*
X150931970Y-104243590D02*
X150971970Y-103663590D01*
D11*
X164981250Y-104743750D03*
X164326251Y-105473750D03*
D12*
X163671250Y-106203750D02*
X164981252Y-104743750D01*
D11*
X170021250Y-103663750D03*
X170001250Y-103953750D03*
D12*
X169981250Y-104243750D02*
X170021250Y-103663750D01*
D11*
X184031250Y-104743750D03*
X183376251Y-105473750D03*
D12*
X182721250Y-106203750D02*
X184031252Y-104743750D01*
D11*
X189071250Y-103663750D03*
X189051250Y-103953750D03*
D12*
X189031250Y-104243750D02*
X189071250Y-103663750D01*
D11*
X203081250Y-104743750D03*
X202426251Y-105473750D03*
D12*
X201771250Y-106203750D02*
X203081252Y-104743750D01*
D11*
X208121250Y-103663750D03*
X208101250Y-103953750D03*
D12*
X208081250Y-104243750D02*
X208121250Y-103663750D01*
D11*
X222131250Y-104743750D03*
X221476251Y-105473750D03*
D12*
X220821250Y-106203750D02*
X222131252Y-104743750D01*
D11*
X227171250Y-103663750D03*
X227151250Y-103953750D03*
D12*
X227131250Y-104243750D02*
X227171250Y-103663750D01*
D11*
X241181250Y-104743750D03*
X240526251Y-105473750D03*
D12*
X239871250Y-106203750D02*
X241181252Y-104743750D01*
D11*
X246221250Y-103663750D03*
X246201250Y-103953750D03*
D12*
X246181250Y-104243750D02*
X246221250Y-103663750D01*
D11*
X260231250Y-104743750D03*
X259576251Y-105473750D03*
D12*
X258921250Y-106203750D02*
X260231252Y-104743750D01*
D11*
X265271250Y-103663750D03*
X265251250Y-103953750D03*
D12*
X265231250Y-104243750D02*
X265271250Y-103663750D01*
D11*
X41156250Y-123793750D03*
X40501251Y-124523750D03*
D12*
X39846250Y-125253750D02*
X41156252Y-123793750D01*
D11*
X46196250Y-122713750D03*
X46176250Y-123003750D03*
D12*
X46156250Y-123293750D02*
X46196250Y-122713750D01*
D11*
X60206250Y-123793750D03*
X59551251Y-124523750D03*
D12*
X58896250Y-125253750D02*
X60206252Y-123793750D01*
D11*
X65246250Y-122713750D03*
X65226250Y-123003750D03*
D12*
X65206250Y-123293750D02*
X65246250Y-122713750D01*
D11*
X79256250Y-123793750D03*
X78601251Y-124523750D03*
D12*
X77946250Y-125253750D02*
X79256252Y-123793750D01*
D11*
X84296250Y-122713750D03*
X84276250Y-123003750D03*
D12*
X84256250Y-123293750D02*
X84296250Y-122713750D01*
D11*
X98306250Y-123793750D03*
X97651251Y-124523750D03*
D12*
X96996250Y-125253750D02*
X98306252Y-123793750D01*
D11*
X103346250Y-122713750D03*
X103326250Y-123003750D03*
D12*
X103306250Y-123293750D02*
X103346250Y-122713750D01*
D11*
X117356250Y-123793750D03*
X116701251Y-124523750D03*
D12*
X116046250Y-125253750D02*
X117356252Y-123793750D01*
D11*
X122396250Y-122713750D03*
X122376250Y-123003750D03*
D12*
X122356250Y-123293750D02*
X122396250Y-122713750D01*
D11*
X136406250Y-123793750D03*
X135751251Y-124523750D03*
D12*
X135096250Y-125253750D02*
X136406252Y-123793750D01*
D11*
X141446250Y-122713750D03*
X141426250Y-123003750D03*
D12*
X141406250Y-123293750D02*
X141446250Y-122713750D01*
D11*
X155456250Y-123793750D03*
X154801251Y-124523750D03*
D12*
X154146250Y-125253750D02*
X155456252Y-123793750D01*
D11*
X160496250Y-122713750D03*
X160476250Y-123003750D03*
D12*
X160456250Y-123293750D02*
X160496250Y-122713750D01*
D11*
X174506250Y-123793750D03*
X173851251Y-124523750D03*
D12*
X173196250Y-125253750D02*
X174506252Y-123793750D01*
D11*
X179546250Y-122713750D03*
X179526250Y-123003750D03*
D12*
X179506250Y-123293750D02*
X179546250Y-122713750D01*
D11*
X193556250Y-123793750D03*
X192901251Y-124523750D03*
D12*
X192246250Y-125253750D02*
X193556252Y-123793750D01*
D11*
X198596250Y-122713750D03*
X198576250Y-123003750D03*
D12*
X198556250Y-123293750D02*
X198596250Y-122713750D01*
D11*
X212606250Y-123793750D03*
X211951251Y-124523750D03*
D12*
X211296250Y-125253750D02*
X212606252Y-123793750D01*
D11*
X217646250Y-122713750D03*
X217626250Y-123003750D03*
D12*
X217606250Y-123293750D02*
X217646250Y-122713750D01*
D11*
X231656250Y-123793750D03*
X231001251Y-124523750D03*
D12*
X230346250Y-125253750D02*
X231656252Y-123793750D01*
D11*
X236696250Y-122713750D03*
X236676250Y-123003750D03*
D12*
X236656250Y-123293750D02*
X236696250Y-122713750D01*
D11*
X250706250Y-123793750D03*
X250051251Y-124523750D03*
D12*
X249396250Y-125253750D02*
X250706252Y-123793750D01*
D11*
X255746250Y-122713750D03*
X255726250Y-123003750D03*
D12*
X255706250Y-123293750D02*
X255746250Y-122713750D01*
D13*
X30321250Y-67953750D02*
X30321250Y-68103750D01*
X30321250Y-103433750D02*
X30321250Y-106203750D01*
X30321250Y-106203750D02*
X30321250Y-112958750D01*
X30321250Y-112958750D02*
X39846250Y-122483750D01*
X20796250Y-93908750D02*
X30321250Y-103433750D01*
X39846250Y-122483750D02*
X39846250Y-125253750D01*
X20796250Y-87003750D02*
X20796250Y-87153750D01*
X20796250Y-87153750D02*
X20796250Y-93908750D01*
X29636249Y-78313751D02*
X20796250Y-87153750D01*
X29636249Y-77357249D02*
X29636249Y-78313751D01*
X30321250Y-76672248D02*
X29636249Y-77357249D01*
X30321250Y-68103750D02*
X30321250Y-76672248D01*
X39846250Y-58751250D02*
X35891250Y-62706250D01*
X39846250Y-58203750D02*
X39846250Y-58751250D01*
X39846250Y-58203750D02*
X39846250Y-58428750D01*
X39846250Y-49053750D02*
X39846250Y-58203750D01*
X31953750Y-66643750D02*
X31631250Y-66643750D01*
X35891250Y-62706250D02*
X31953750Y-66643750D01*
X49371250Y-103433750D02*
X49371250Y-106203750D01*
X39846250Y-87153750D02*
X39846250Y-93908750D01*
X39846250Y-93908750D02*
X49371250Y-103433750D01*
X39846250Y-87003750D02*
X39846250Y-87153750D01*
X49371250Y-106203750D02*
X49371250Y-112958750D01*
X58896250Y-122483750D02*
X58896250Y-125253750D01*
X49371250Y-112958750D02*
X58896250Y-122483750D01*
X49371250Y-67953750D02*
X49371250Y-68103750D01*
X51806249Y-65518751D02*
X50681250Y-66643750D01*
X52597751Y-65518751D02*
X51806249Y-65518751D01*
X58896250Y-59220252D02*
X52597751Y-65518751D01*
X58896250Y-49053750D02*
X58896250Y-59220252D01*
X40971250Y-86028750D02*
X39846250Y-87153750D01*
X42281249Y-84568751D02*
X41156250Y-85693750D01*
X42281249Y-77412249D02*
X42281249Y-84568751D01*
X42947249Y-76746249D02*
X42281249Y-77412249D01*
X43774753Y-76746249D02*
X42947249Y-76746249D01*
X49371250Y-71149752D02*
X43774753Y-76746249D01*
X49371250Y-68103750D02*
X49371250Y-71149752D01*
X58896250Y-93908750D02*
X68421250Y-103433750D01*
X58896250Y-87153750D02*
X58896250Y-93908750D01*
X77946250Y-122483750D02*
X77946250Y-125253750D01*
X68421250Y-103433750D02*
X68421250Y-106203750D01*
X68421250Y-112958750D02*
X77946250Y-122483750D01*
X58896250Y-87003750D02*
X58896250Y-87153750D01*
X68421250Y-67953750D02*
X68421250Y-68103750D01*
X68421250Y-106203750D02*
X68421250Y-112958750D01*
X58896250Y-87153750D02*
X67786250Y-78263750D01*
X67736249Y-77357249D02*
X67736249Y-78263750D01*
X68421250Y-68103750D02*
X68421250Y-76672248D01*
X68421250Y-76672248D02*
X67736249Y-77357249D01*
X77946250Y-49053750D02*
X77946250Y-58428750D01*
X77946250Y-58428750D02*
X68421250Y-67953750D01*
X68421250Y-67953750D02*
X68421250Y-68103750D01*
X96996250Y-58428750D02*
X87471250Y-67953750D01*
X87471250Y-67953750D02*
X87471250Y-68103750D01*
X96996250Y-49053750D02*
X96996250Y-58428750D01*
X87471250Y-112958750D02*
X96996250Y-122483750D01*
X87471250Y-106203750D02*
X87471250Y-112958750D01*
X77946250Y-87003750D02*
X77946250Y-87153750D01*
X96996250Y-122483750D02*
X96996250Y-125253750D01*
X87471250Y-77478750D02*
X77946250Y-87003750D01*
X77946250Y-87153750D02*
X77946250Y-93908750D01*
X87471250Y-68103750D02*
X87471250Y-77478750D01*
X77946250Y-93908750D02*
X87471250Y-103433750D01*
X87471250Y-103433750D02*
X87471250Y-106203750D01*
X106521250Y-112958750D02*
X116046250Y-122483750D01*
X96996250Y-87153750D02*
X96996250Y-93908750D01*
X116046250Y-58428750D02*
X106521250Y-67953750D01*
X116046250Y-49053750D02*
X116046250Y-58428750D01*
X106521250Y-106203750D02*
X106521250Y-112958750D01*
X96996250Y-87003750D02*
X96996250Y-87153750D01*
X116046250Y-122483750D02*
X116046250Y-125253750D01*
X106521250Y-77478750D02*
X96996250Y-87003750D01*
X106521250Y-67953750D02*
X106521250Y-68103750D01*
X106521250Y-103433750D02*
X106521250Y-106203750D01*
X106521250Y-68103750D02*
X106521250Y-77478750D01*
X96996250Y-93908750D02*
X106521250Y-103433750D01*
X125571250Y-106203750D02*
X125571250Y-112958750D01*
X125571250Y-112958750D02*
X135096250Y-122483750D01*
X116046250Y-87003750D02*
X116046250Y-87153750D01*
X116046250Y-87153750D02*
X116046250Y-93908750D01*
X125571250Y-77478750D02*
X116046250Y-87003750D01*
X135096250Y-122483750D02*
X135096250Y-125253750D01*
X125571250Y-67953750D02*
X125571250Y-68103750D01*
X135096250Y-58428750D02*
X125571250Y-67953750D01*
X135096250Y-49053750D02*
X135096250Y-58428750D01*
X116046250Y-93908750D02*
X125571250Y-103433750D01*
X125571250Y-103433750D02*
X125571250Y-106203750D01*
X125571250Y-68103750D02*
X125571250Y-77478750D01*
X154146250Y-58428750D02*
X144621250Y-67953750D01*
X144621250Y-77478750D02*
X135096250Y-87003750D01*
X135096250Y-93908750D02*
X144621250Y-103433750D01*
X135096250Y-87003750D02*
X135096250Y-87153750D01*
X144621250Y-103433750D02*
X144621250Y-106203750D01*
X144621250Y-112958750D02*
X154146250Y-122483750D01*
X135096250Y-87153750D02*
X135096250Y-93908750D01*
X144621250Y-106203750D02*
X144621250Y-112958750D01*
X154146250Y-122483750D02*
X154146250Y-125253750D01*
X144621250Y-68103750D02*
X144621250Y-77478750D01*
X154146250Y-49053750D02*
X154146250Y-58428750D01*
X144621250Y-67953750D02*
X144621250Y-68103750D01*
X154146250Y-87003750D02*
X154146250Y-87153750D01*
X163671250Y-106203750D02*
X163671250Y-112958750D01*
X163671250Y-68103750D02*
X163671250Y-77478750D01*
X173196250Y-122483750D02*
X173196250Y-125253750D01*
X173196250Y-58428750D02*
X163671250Y-67953750D01*
X154146250Y-93908750D02*
X163671250Y-103433750D01*
X154146250Y-87153750D02*
X154146250Y-93908750D01*
X163671250Y-103433750D02*
X163671250Y-106203750D01*
X173196250Y-49053750D02*
X173196250Y-58428750D01*
X163671250Y-67953750D02*
X163671250Y-68103750D01*
X163671250Y-112958750D02*
X173196250Y-122483750D01*
X163671250Y-77478750D02*
X154146250Y-87003750D01*
X192246250Y-122483750D02*
X192246250Y-125253750D01*
X192246250Y-49053750D02*
X192246250Y-58428750D01*
X173196250Y-87003750D02*
X173196250Y-87153750D01*
X192246250Y-58428750D02*
X182721250Y-67953750D01*
X182721250Y-67953750D02*
X182721250Y-68103750D01*
X182721250Y-112958750D02*
X192246250Y-122483750D01*
X182721250Y-103433750D02*
X182721250Y-106203750D01*
X182721250Y-77478750D02*
X173196250Y-87003750D01*
X182721250Y-106203750D02*
X182721250Y-112958750D01*
X173196250Y-93908750D02*
X182721250Y-103433750D01*
X173196250Y-87153750D02*
X173196250Y-93908750D01*
X182721250Y-68103750D02*
X182721250Y-77478750D01*
X211296250Y-58428750D02*
X201771250Y-67953750D01*
X211296250Y-49053750D02*
X211296250Y-58428750D01*
X192246250Y-87153750D02*
X192246250Y-93908750D01*
X201771250Y-112958750D02*
X211296250Y-122483750D01*
X211296250Y-122483750D02*
X211296250Y-125253750D01*
X192246250Y-87003750D02*
X192246250Y-87153750D01*
X201771250Y-103433750D02*
X201771250Y-106203750D01*
X201771250Y-67953750D02*
X201771250Y-68103750D01*
X192246250Y-93908750D02*
X201771250Y-103433750D01*
X201771250Y-106203750D02*
X201771250Y-112958750D01*
X201771250Y-77478750D02*
X192246250Y-87003750D01*
X201771250Y-68103750D02*
X201771250Y-77478750D01*
X220821250Y-103433750D02*
X220821250Y-106203750D01*
X211296250Y-93908750D02*
X220821250Y-103433750D01*
X230346250Y-58428750D02*
X220821250Y-67953750D01*
X230346250Y-49053750D02*
X230346250Y-58428750D01*
X220821250Y-67953750D02*
X220821250Y-68103750D01*
X211296250Y-87153750D02*
X211296250Y-93908750D01*
X220821250Y-112958750D02*
X230346250Y-122483750D01*
X230346250Y-122483750D02*
X230346250Y-125253750D01*
X211296250Y-87003750D02*
X211296250Y-87153750D01*
X220821250Y-77478750D02*
X211296250Y-87003750D01*
X220821250Y-106203750D02*
X220821250Y-112958750D01*
X220821250Y-68103750D02*
X220821250Y-77478750D01*
X239871250Y-67953750D02*
X239871250Y-68103750D01*
X249396250Y-58428750D02*
X239871250Y-67953750D01*
X249396250Y-49053750D02*
X249396250Y-58428750D01*
X230346250Y-87003750D02*
X230346250Y-87153750D01*
X239871250Y-68103750D02*
X239871250Y-77478750D01*
X239871250Y-77478750D02*
X230346250Y-87003750D01*
X239871250Y-103433750D02*
X239871250Y-106203750D01*
X230346250Y-87153750D02*
X230346250Y-93908750D01*
X230346250Y-93908750D02*
X239871250Y-103433750D01*
X249396250Y-122483750D02*
X249396250Y-125253750D01*
X239871250Y-112958750D02*
X249396250Y-122483750D01*
X239871250Y-106203750D02*
X239871250Y-112958750D01*
X258921250Y-103433750D02*
X258921250Y-106203750D01*
X249396250Y-87153750D02*
X249396250Y-93908750D01*
X249396250Y-93908750D02*
X258921250Y-103433750D01*
X258921250Y-68103750D02*
X258921250Y-77478750D01*
X249396250Y-87003750D02*
X249396250Y-87153750D01*
X262021250Y-80728750D02*
X268446250Y-87153750D01*
X255671250Y-80728750D02*
X262021250Y-80728750D01*
X255671250Y-80728750D02*
X249396250Y-87003750D01*
X258921250Y-77478750D02*
X255671250Y-80728750D01*
M02*
