M48
; DRILL file {KiCad (5.1.4)-1} date 23/12/2019 21:10:34
; FORMAT={-:-/ absolute / inch / decimal}
; #@! TF.CreationDate,2019-12-23T21:10:34+01:00
; #@! TF.GenerationSoftware,Kicad,Pcbnew,(5.1.4)-1
; #@! TF.FileFunction,Plated,1,2,PTH
FMAT,2
INCH
T1C0.0394
T2C0.0579
%
G90
G05
T1
X1.013Y-2.4688
X1.013Y-3.0678
X1.113Y-2.4688
X1.113Y-3.0678
X1.213Y-2.4688
X1.213Y-3.0678
X1.313Y-2.4688
X1.313Y-3.0678
X1.413Y-2.4688
X1.413Y-3.0678
X1.513Y-2.4688
X1.513Y-3.0678
X1.613Y-2.4688
X1.613Y-3.0678
X1.713Y-2.4688
X1.713Y-3.0678
X1.813Y-2.4688
X1.813Y-3.0678
X1.913Y-2.4688
X1.913Y-3.0678
X2.013Y-2.4688
X2.013Y-3.0678
X2.113Y-2.4688
X2.113Y-3.0678
X2.313Y-2.4688
X2.313Y-3.0678
X2.413Y-2.4688
X2.413Y-3.0678
X2.513Y-2.4688
X2.513Y-3.0678
X2.613Y-2.4688
X2.613Y-3.0678
X2.713Y-2.4688
X2.713Y-3.0678
X2.813Y-2.4688
X2.813Y-3.0678
T2
X3.4438Y-4.1812
X3.4953Y-4.1238
X3.6922Y-4.1041
X3.6938Y-4.0812
X6.4437Y-2.6812
X6.4953Y-2.6238
X6.6922Y-2.6041
X6.6937Y-2.5812
X7.1937Y-4.1812
X7.2453Y-4.1238
X7.4422Y-4.1041
X7.4437Y-4.0812
X7.9437Y-2.6812
X7.9953Y-2.6238
X8.1922Y-2.6041
X8.1937Y-2.5812
X7.9437Y-4.1812
X7.9953Y-4.1238
X8.1922Y-4.1041
X8.1937Y-4.0812
X8.3187Y-4.9312
X8.3703Y-4.8738
X8.5672Y-4.8541
X8.5687Y-4.8312
X3.4438Y-2.6812
X3.4953Y-2.6238
X3.6922Y-2.6041
X3.6938Y-2.5812
X3.0688Y-3.4312
X3.1203Y-3.3738
X3.3172Y-3.3541
X3.3188Y-3.3312
X4.5687Y-4.9312
X4.6203Y-4.8738
X4.8172Y-4.8541
X4.8187Y-4.8312
X1.9437Y-2.6812
X1.9953Y-2.6238
X2.1922Y-2.6041
X2.1938Y-2.5812
X7.1937Y-2.6812
X7.2453Y-2.6238
X7.4422Y-2.6041
X7.4437Y-2.5812
X9.8187Y-1.9312
X9.8703Y-1.8738
X10.0672Y-1.8541
X10.0687Y-1.8313
X8.3187Y-3.4312
X8.3703Y-3.3738
X8.5672Y-3.3541
X8.5687Y-3.3312
X4.1937Y-2.6812
X4.2453Y-2.6238
X4.4422Y-2.6041
X4.4437Y-2.5812
X9.4437Y-4.1812
X9.4953Y-4.1238
X9.6922Y-4.1041
X9.6937Y-4.0812
X8.6937Y-2.6812
X8.7453Y-2.6238
X8.9422Y-2.6041
X8.9437Y-2.5812
X3.8188Y-1.9312
X3.8703Y-1.8738
X4.0672Y-1.8541
X4.0687Y-1.8313
X8.6937Y-4.1812
X8.7453Y-4.1238
X8.9422Y-4.1041
X8.9437Y-4.0812
X2.3188Y-1.9312
X2.3703Y-1.8738
X2.5672Y-1.8541
X2.5688Y-1.8313
X2.3188Y-4.9312
X2.3703Y-4.8738
X2.5672Y-4.8541
X2.5688Y-4.8312
X1.1937Y-4.1812
X1.2453Y-4.1238
X1.4422Y-4.1041
X1.4437Y-4.0812
X3.8188Y-4.9312
X3.8703Y-4.8738
X4.0672Y-4.8541
X4.0687Y-4.8312
X4.1937Y-4.1812
X4.2453Y-4.1238
X4.4422Y-4.1041
X4.4437Y-4.0812
X6.8187Y-3.4312
X6.8703Y-3.3738
X7.0672Y-3.3541
X7.0687Y-3.3312
X10.5687Y-3.4312
X10.6203Y-3.3738
X10.8172Y-3.3541
X10.8187Y-3.3312
X9.0687Y-4.9312
X9.1203Y-4.8738
X9.3172Y-4.8541
X9.3187Y-4.8312
X3.8188Y-3.4312
X3.8703Y-3.3738
X4.0672Y-3.3541
X4.0687Y-3.3312
X3.0688Y-1.9312
X3.1203Y-1.8738
X3.3172Y-1.8541
X3.3188Y-1.8313
X6.0687Y-3.4312
X6.1203Y-3.3738
X6.3172Y-3.3541
X6.3187Y-3.3312
X6.0687Y-4.9312
X6.1203Y-4.8738
X6.3172Y-4.8541
X6.3187Y-4.8312
X5.6937Y-2.6812
X5.7453Y-2.6238
X5.9422Y-2.6041
X5.9437Y-2.5812
X2.3188Y-3.4312
X2.3703Y-3.3738
X2.5672Y-3.3541
X2.5688Y-3.3312
X7.5687Y-1.9312
X7.6203Y-1.8738
X7.8172Y-1.8541
X7.8187Y-1.8313
X0.8187Y-3.4312
X0.8703Y-3.3738
X1.0672Y-3.3541
X1.0687Y-3.3312
X8.3187Y-1.9312
X8.3703Y-1.8738
X8.5672Y-1.8541
X8.5687Y-1.8313
X10.1937Y-4.1812
X10.2453Y-4.1238
X10.4422Y-4.1041
X10.4437Y-4.0812
X10.1937Y-2.6812
X10.2453Y-2.6238
X10.4422Y-2.6041
X10.4437Y-2.5812
X5.3187Y-1.9312
X5.3703Y-1.8738
X5.5672Y-1.8541
X5.5687Y-1.8313
X1.9437Y-4.1812
X1.9953Y-4.1238
X2.1922Y-4.1041
X2.1938Y-4.0812
X6.0687Y-1.9312
X6.1203Y-1.8738
X6.3172Y-1.8541
X6.3187Y-1.8313
X3.0688Y-4.9312
X3.1203Y-4.8738
X3.3172Y-4.8541
X3.3188Y-4.8312
X6.8187Y-4.9312
X6.8703Y-4.8738
X7.0672Y-4.8541
X7.0687Y-4.8312
X2.6938Y-4.1812
X2.7453Y-4.1238
X2.9422Y-4.1041
X2.9438Y-4.0812
X4.9437Y-4.1812
X4.9953Y-4.1238
X5.1922Y-4.1041
X5.1937Y-4.0812
X9.4437Y-2.6812
X9.4953Y-2.6238
X9.6922Y-2.6041
X9.6937Y-2.5812
X6.4437Y-4.1812
X6.4953Y-4.1238
X6.6922Y-4.1041
X6.6937Y-4.0812
X5.3187Y-4.9312
X5.3703Y-4.8738
X5.5672Y-4.8541
X5.5687Y-4.8312
X4.5687Y-3.4312
X4.6203Y-3.3738
X4.8172Y-3.3541
X4.8187Y-3.3312
X9.8187Y-4.9312
X9.8703Y-4.8738
X10.0672Y-4.8541
X10.0687Y-4.8312
X4.9437Y-2.6812
X4.9953Y-2.6238
X5.1922Y-2.6041
X5.1937Y-2.5812
X7.5687Y-3.4312
X7.6203Y-3.3738
X7.8172Y-3.3541
X7.8187Y-3.3312
X7.5687Y-4.9312
X7.6203Y-4.8738
X7.8172Y-4.8541
X7.8187Y-4.8312
X2.6938Y-2.6812
X2.7453Y-2.6238
X2.9422Y-2.6041
X2.9438Y-2.5812
X1.5687Y-3.4312
X1.6203Y-3.3738
X1.8172Y-3.3541
X1.8187Y-3.3312
X1.5687Y-1.9312
X1.6203Y-1.8738
X1.8172Y-1.8541
X1.8187Y-1.8313
X4.5687Y-1.9312
X4.6203Y-1.8738
X4.8172Y-1.8541
X4.8187Y-1.8313
X9.0687Y-3.4312
X9.1203Y-3.3738
X9.3172Y-3.3541
X9.3187Y-3.3312
X9.0687Y-1.9312
X9.1203Y-1.8738
X9.3172Y-1.8541
X9.3187Y-1.8313
X5.6938Y-4.1812
X5.7454Y-4.1238
X5.9422Y-4.1041
X5.9438Y-4.0812
X5.3187Y-3.4312
X5.3703Y-3.3738
X5.5672Y-3.3541
X5.5687Y-3.3312
X6.8187Y-1.9312
X6.8703Y-1.8738
X7.0672Y-1.8541
X7.0687Y-1.8313
X1.5687Y-4.9312
X1.6203Y-4.8738
X1.8172Y-4.8541
X1.8187Y-4.8312
X1.1937Y-2.6812
X1.2453Y-2.6238
X1.4422Y-2.6041
X1.4437Y-2.5812
X9.8187Y-3.4312
X9.8703Y-3.3738
X10.0672Y-3.3541
X10.0687Y-3.3312
T0
M30
