M48
; DRILL file {KiCad (5.1.4)-1} date 23/12/2019 21:10:34
; FORMAT={-:-/ absolute / inch / decimal}
; #@! TF.CreationDate,2019-12-23T21:10:34+01:00
; #@! TF.GenerationSoftware,Kicad,Pcbnew,(5.1.4)-1
; #@! TF.FileFunction,NonPlated,1,2,NPTH
FMAT,2
INCH
T1C0.0689
T2C0.0984
T3C0.1570
%
G90
G05
T1
X6.0187Y-3.5312
X6.4188Y-3.5312
X6.0187Y-5.0312
X6.4188Y-5.0312
X5.6437Y-2.7812
X6.0438Y-2.7812
X2.2687Y-3.5312
X2.6687Y-3.5312
X7.5187Y-2.0312
X7.9188Y-2.0312
X0.7687Y-3.5312
X1.1687Y-3.5312
X8.2687Y-2.0312
X8.6687Y-2.0312
X10.1437Y-4.2812
X10.5437Y-4.2812
X10.1437Y-2.7812
X10.5437Y-2.7812
X5.2687Y-2.0312
X5.6688Y-2.0312
X1.8938Y-4.2812
X2.2937Y-4.2812
X6.0187Y-2.0312
X6.4188Y-2.0312
X3.0187Y-5.0312
X3.4187Y-5.0312
X6.7687Y-5.0312
X7.1688Y-5.0312
X2.6437Y-4.2812
X3.0437Y-4.2812
X4.8937Y-4.2812
X5.2938Y-4.2812
X9.3937Y-2.7812
X9.7937Y-2.7812
X6.3937Y-4.2812
X6.7938Y-4.2812
X5.2687Y-5.0312
X5.6688Y-5.0312
X4.5187Y-3.5312
X4.9188Y-3.5312
X9.7687Y-5.0312
X10.1687Y-5.0312
X4.8937Y-2.7812
X5.2938Y-2.7812
X7.5187Y-3.5312
X7.9188Y-3.5312
X7.5187Y-5.0312
X7.9188Y-5.0312
X2.6437Y-2.7812
X3.0437Y-2.7812
X1.5188Y-3.5312
X1.9187Y-3.5312
X1.5188Y-2.0312
X1.9187Y-2.0312
X4.5187Y-2.0312
X4.9188Y-2.0312
X9.0187Y-3.5312
X9.4187Y-3.5312
X9.0187Y-2.0312
X9.4187Y-2.0312
X5.6438Y-4.2812
X6.0438Y-4.2812
X5.2687Y-3.5312
X5.6688Y-3.5312
X6.7687Y-2.0312
X7.1688Y-2.0312
X1.5188Y-5.0312
X1.9187Y-5.0312
X1.1438Y-2.7812
X1.5437Y-2.7812
X9.7687Y-3.5312
X10.1687Y-3.5312
X3.3937Y-4.2812
X3.7937Y-4.2812
X6.3937Y-2.7812
X6.7938Y-2.7812
X7.1437Y-4.2812
X7.5438Y-4.2812
X7.8937Y-2.7812
X8.2937Y-2.7812
X7.8937Y-4.2812
X8.2937Y-4.2812
X8.2687Y-5.0312
X8.6687Y-5.0312
X3.3937Y-2.7812
X3.7937Y-2.7812
X3.0187Y-3.5312
X3.4187Y-3.5312
X4.5187Y-5.0312
X4.9188Y-5.0312
X1.8938Y-2.7812
X2.2937Y-2.7812
X7.1437Y-2.7812
X7.5438Y-2.7812
X9.7687Y-2.0312
X10.1687Y-2.0312
X8.2687Y-3.5312
X8.6687Y-3.5312
X4.1437Y-2.7812
X4.5438Y-2.7812
X9.3937Y-4.2812
X9.7937Y-4.2812
X8.6437Y-2.7812
X9.0437Y-2.7812
X3.7687Y-2.0312
X4.1688Y-2.0312
X8.6437Y-4.2812
X9.0437Y-4.2812
X2.2687Y-2.0312
X2.6687Y-2.0312
X2.2687Y-5.0312
X2.6687Y-5.0312
X1.1438Y-4.2812
X1.5437Y-4.2812
X3.7687Y-5.0312
X4.1688Y-5.0312
X4.1437Y-4.2812
X4.5438Y-4.2812
X6.7687Y-3.5312
X7.1688Y-3.5312
X10.5187Y-3.5312
X10.9187Y-3.5312
X9.0187Y-5.0312
X9.4187Y-5.0312
X3.7687Y-3.5312
X4.1688Y-3.5312
X3.0187Y-2.0312
X3.4187Y-2.0312
T2
X7.7188Y-4.2812
X10.3438Y-3.5312
X1.3438Y-2.0312
X5.8438Y-3.5312
X5.8438Y-2.0312
X7.7188Y-2.7812
X1.3438Y-3.5312
X3.9688Y-4.2812
X10.3438Y-2.0312
X5.8438Y-5.0312
X10.3438Y-5.0312
X1.3438Y-5.0312
X3.9688Y-2.7812
T3
X6.9688Y-2.0312
X1.7188Y-5.0312
X1.3438Y-2.7812
X9.9688Y-3.5312
X3.5938Y-4.2812
X6.5938Y-2.7812
X7.3438Y-4.2812
X8.0938Y-2.7812
X8.0938Y-4.2812
X8.4688Y-5.0312
X3.5938Y-2.7812
X3.2188Y-3.5312
X4.7188Y-5.0312
X2.0938Y-2.7812
X7.3438Y-2.7812
X9.9688Y-2.0312
X8.4688Y-3.5312
X4.3438Y-2.7812
X9.5938Y-4.2812
X8.8438Y-2.7812
X3.9688Y-2.0312
X8.8438Y-4.2812
X2.4688Y-2.0312
X2.4688Y-5.0312
X1.3438Y-4.2812
X3.9688Y-5.0312
X4.3438Y-4.2812
X6.9688Y-3.5312
X10.7188Y-3.5312
X9.2188Y-5.0312
X3.9688Y-3.5312
X3.2188Y-2.0312
X6.2188Y-3.5312
X6.2188Y-5.0312
X5.8438Y-2.7812
X2.4688Y-3.5312
X7.7188Y-2.0312
X0.9688Y-3.5312
X8.4688Y-2.0312
X10.3438Y-4.2812
X10.3438Y-2.7812
X5.4688Y-2.0312
X2.0938Y-4.2812
X6.2188Y-2.0312
X3.2188Y-5.0312
X6.9688Y-5.0312
X2.8438Y-4.2812
X5.0938Y-4.2812
X9.5938Y-2.7812
X6.5938Y-4.2812
X5.4688Y-5.0312
X4.7188Y-3.5312
X9.9688Y-5.0312
X5.0938Y-2.7812
X7.7188Y-3.5312
X7.7188Y-5.0312
X2.8438Y-2.7812
X1.7188Y-3.5312
X1.7188Y-2.0312
X4.7188Y-2.0312
X9.2188Y-3.5312
X9.2188Y-2.0312
X5.8438Y-4.2812
X5.4688Y-3.5312
T0
M30
