G04 #@! TF.GenerationSoftware,KiCad,Pcbnew,(5.1.4)-1*
G04 #@! TF.CreationDate,2019-12-22T22:02:26+01:00*
G04 #@! TF.ProjectId,keyboard3,6b657962-6f61-4726-9433-2e6b69636164,rev?*
G04 #@! TF.SameCoordinates,Original*
G04 #@! TF.FileFunction,Copper,L2,Bot*
G04 #@! TF.FilePolarity,Positive*
%FSLAX46Y46*%
G04 Gerber Fmt 4.6, Leading zero omitted, Abs format (unit mm)*
G04 Created by KiCad (PCBNEW (5.1.4)-1) date 2019-12-22 22:02:26*
%MOMM*%
%LPD*%
G04 APERTURE LIST*
%ADD10C,1.700000*%
%ADD11C,2.250000*%
%ADD12C,2.250000*%
%ADD13R,1.200000X1.300000*%
%ADD14C,0.250000*%
G04 APERTURE END LIST*
D10*
X71451250Y-77921250D03*
X68911250Y-77921250D03*
X63831250Y-77921250D03*
X66371250Y-77921250D03*
X58751250Y-77921250D03*
X61291250Y-77921250D03*
X53671250Y-77921250D03*
X46051250Y-77921250D03*
X51131250Y-77921250D03*
X48591250Y-77921250D03*
X43511250Y-77921250D03*
X40971250Y-77921250D03*
X38431250Y-77921250D03*
X33351250Y-77921250D03*
X35891250Y-77921250D03*
X30811250Y-77921250D03*
X28271250Y-77921250D03*
X58751250Y-62706250D03*
X71451250Y-62706250D03*
X63831250Y-62706250D03*
X68911250Y-62706250D03*
X66371250Y-62706250D03*
X61291250Y-62706250D03*
X53671250Y-62706250D03*
X51131250Y-62706250D03*
X48591250Y-62706250D03*
X46051250Y-62706250D03*
X43511250Y-62706250D03*
X40971250Y-62706250D03*
X38431250Y-62706250D03*
X35891250Y-62706250D03*
X33351250Y-62706250D03*
X30811250Y-62706250D03*
X25731250Y-62706250D03*
X28271250Y-62706250D03*
X25731250Y-77921250D03*
D11*
X41156250Y-47593750D03*
X40501251Y-48323750D03*
D12*
X39846250Y-49053750D02*
X41156252Y-47593750D01*
D11*
X46196250Y-46513750D03*
X46176250Y-46803750D03*
D12*
X46156250Y-47093750D02*
X46196250Y-46513750D01*
D11*
X60206250Y-47593750D03*
X59551251Y-48323750D03*
D12*
X58896250Y-49053750D02*
X60206252Y-47593750D01*
D11*
X65246250Y-46513750D03*
X65226250Y-46803750D03*
D12*
X65206250Y-47093750D02*
X65246250Y-46513750D01*
D11*
X79256250Y-47593750D03*
X78601251Y-48323750D03*
D12*
X77946250Y-49053750D02*
X79256252Y-47593750D01*
D11*
X84296250Y-46513750D03*
X84276250Y-46803750D03*
D12*
X84256250Y-47093750D02*
X84296250Y-46513750D01*
D11*
X98306250Y-47593750D03*
X97651251Y-48323750D03*
D12*
X96996250Y-49053750D02*
X98306252Y-47593750D01*
D11*
X103346250Y-46513750D03*
X103326250Y-46803750D03*
D12*
X103306250Y-47093750D02*
X103346250Y-46513750D01*
D11*
X117356250Y-47593750D03*
X116701251Y-48323750D03*
D12*
X116046250Y-49053750D02*
X117356252Y-47593750D01*
D11*
X122396250Y-46513750D03*
X122376250Y-46803750D03*
D12*
X122356250Y-47093750D02*
X122396250Y-46513750D01*
D11*
X136406250Y-47593750D03*
X135751251Y-48323750D03*
D12*
X135096250Y-49053750D02*
X136406252Y-47593750D01*
D11*
X141446250Y-46513750D03*
X141426250Y-46803750D03*
D12*
X141406250Y-47093750D02*
X141446250Y-46513750D01*
D11*
X155456250Y-47593750D03*
X154801251Y-48323750D03*
D12*
X154146250Y-49053750D02*
X155456252Y-47593750D01*
D11*
X160496250Y-46513750D03*
X160476250Y-46803750D03*
D12*
X160456250Y-47093750D02*
X160496250Y-46513750D01*
D11*
X174506250Y-47593750D03*
X173851251Y-48323750D03*
D12*
X173196250Y-49053750D02*
X174506252Y-47593750D01*
D11*
X179546250Y-46513750D03*
X179526250Y-46803750D03*
D12*
X179506250Y-47093750D02*
X179546250Y-46513750D01*
D11*
X193556250Y-47593750D03*
X192901251Y-48323750D03*
D12*
X192246250Y-49053750D02*
X193556252Y-47593750D01*
D11*
X198596250Y-46513750D03*
X198576250Y-46803750D03*
D12*
X198556250Y-47093750D02*
X198596250Y-46513750D01*
D11*
X212606250Y-47593750D03*
X211951251Y-48323750D03*
D12*
X211296250Y-49053750D02*
X212606252Y-47593750D01*
D11*
X217646250Y-46513750D03*
X217626250Y-46803750D03*
D12*
X217606250Y-47093750D02*
X217646250Y-46513750D01*
D11*
X231656250Y-47593750D03*
X231001251Y-48323750D03*
D12*
X230346250Y-49053750D02*
X231656252Y-47593750D01*
D11*
X236696250Y-46513750D03*
X236676250Y-46803750D03*
D12*
X236656250Y-47093750D02*
X236696250Y-46513750D01*
D11*
X250706250Y-47593750D03*
X250051251Y-48323750D03*
D12*
X249396250Y-49053750D02*
X250706252Y-47593750D01*
D11*
X255746250Y-46513750D03*
X255726250Y-46803750D03*
D12*
X255706250Y-47093750D02*
X255746250Y-46513750D01*
D11*
X31631250Y-66643750D03*
X30976251Y-67373750D03*
D12*
X30321250Y-68103750D02*
X31631252Y-66643750D01*
D11*
X36671250Y-65563750D03*
X36651250Y-65853750D03*
D12*
X36631250Y-66143750D02*
X36671250Y-65563750D01*
D11*
X50681250Y-66643750D03*
X50026251Y-67373750D03*
D12*
X49371250Y-68103750D02*
X50681252Y-66643750D01*
D11*
X55721250Y-65563750D03*
X55701250Y-65853750D03*
D12*
X55681250Y-66143750D02*
X55721250Y-65563750D01*
D11*
X69731250Y-66643750D03*
X69076251Y-67373750D03*
D12*
X68421250Y-68103750D02*
X69731252Y-66643750D01*
D11*
X74771250Y-65563750D03*
X74751250Y-65853750D03*
D12*
X74731250Y-66143750D02*
X74771250Y-65563750D01*
D11*
X88781250Y-66643750D03*
X88126251Y-67373750D03*
D12*
X87471250Y-68103750D02*
X88781252Y-66643750D01*
D11*
X93821250Y-65563750D03*
X93801250Y-65853750D03*
D12*
X93781250Y-66143750D02*
X93821250Y-65563750D01*
D11*
X107831250Y-66643750D03*
X107176251Y-67373750D03*
D12*
X106521250Y-68103750D02*
X107831252Y-66643750D01*
D11*
X112871250Y-65563750D03*
X112851250Y-65853750D03*
D12*
X112831250Y-66143750D02*
X112871250Y-65563750D01*
D11*
X126881250Y-66643750D03*
X126226251Y-67373750D03*
D12*
X125571250Y-68103750D02*
X126881252Y-66643750D01*
D11*
X131921250Y-65563750D03*
X131901250Y-65853750D03*
D12*
X131881250Y-66143750D02*
X131921250Y-65563750D01*
D11*
X145931250Y-66643750D03*
X145276251Y-67373750D03*
D12*
X144621250Y-68103750D02*
X145931252Y-66643750D01*
D11*
X150971250Y-65563750D03*
X150951250Y-65853750D03*
D12*
X150931250Y-66143750D02*
X150971250Y-65563750D01*
D11*
X164981250Y-66643750D03*
X164326251Y-67373750D03*
D12*
X163671250Y-68103750D02*
X164981252Y-66643750D01*
D11*
X170021250Y-65563750D03*
X170001250Y-65853750D03*
D12*
X169981250Y-66143750D02*
X170021250Y-65563750D01*
D11*
X184031250Y-66643750D03*
X183376251Y-67373750D03*
D12*
X182721250Y-68103750D02*
X184031252Y-66643750D01*
D11*
X189071250Y-65563750D03*
X189051250Y-65853750D03*
D12*
X189031250Y-66143750D02*
X189071250Y-65563750D01*
D11*
X203081250Y-66643750D03*
X202426251Y-67373750D03*
D12*
X201771250Y-68103750D02*
X203081252Y-66643750D01*
D11*
X208121250Y-65563750D03*
X208101250Y-65853750D03*
D12*
X208081250Y-66143750D02*
X208121250Y-65563750D01*
D11*
X222131250Y-66643750D03*
X221476251Y-67373750D03*
D12*
X220821250Y-68103750D02*
X222131252Y-66643750D01*
D11*
X227171250Y-65563750D03*
X227151250Y-65853750D03*
D12*
X227131250Y-66143750D02*
X227171250Y-65563750D01*
D11*
X241181250Y-66643750D03*
X240526251Y-67373750D03*
D12*
X239871250Y-68103750D02*
X241181252Y-66643750D01*
D11*
X246221250Y-65563750D03*
X246201250Y-65853750D03*
D12*
X246181250Y-66143750D02*
X246221250Y-65563750D01*
D11*
X260231250Y-66643750D03*
X259576251Y-67373750D03*
D12*
X258921250Y-68103750D02*
X260231252Y-66643750D01*
D11*
X265271250Y-65563750D03*
X265251250Y-65853750D03*
D12*
X265231250Y-66143750D02*
X265271250Y-65563750D01*
D11*
X22106250Y-85693750D03*
X21451251Y-86423750D03*
D12*
X20796250Y-87153750D02*
X22106252Y-85693750D01*
D11*
X27146250Y-84613750D03*
X27126250Y-84903750D03*
D12*
X27106250Y-85193750D02*
X27146250Y-84613750D01*
D11*
X41156250Y-85693750D03*
X40501251Y-86423750D03*
D12*
X39846250Y-87153750D02*
X41156252Y-85693750D01*
D11*
X46196250Y-84613750D03*
X46176250Y-84903750D03*
D12*
X46156250Y-85193750D02*
X46196250Y-84613750D01*
D11*
X60206250Y-85693750D03*
X59551251Y-86423750D03*
D12*
X58896250Y-87153750D02*
X60206252Y-85693750D01*
D11*
X65246250Y-84613750D03*
X65226250Y-84903750D03*
D12*
X65206250Y-85193750D02*
X65246250Y-84613750D01*
D11*
X79256250Y-85693750D03*
X78601251Y-86423750D03*
D12*
X77946250Y-87153750D02*
X79256252Y-85693750D01*
D11*
X84296250Y-84613750D03*
X84276250Y-84903750D03*
D12*
X84256250Y-85193750D02*
X84296250Y-84613750D01*
D11*
X98306250Y-85693750D03*
X97651251Y-86423750D03*
D12*
X96996250Y-87153750D02*
X98306252Y-85693750D01*
D11*
X103346250Y-84613750D03*
X103326250Y-84903750D03*
D12*
X103306250Y-85193750D02*
X103346250Y-84613750D01*
D11*
X117356250Y-85693750D03*
X116701251Y-86423750D03*
D12*
X116046250Y-87153750D02*
X117356252Y-85693750D01*
D11*
X122396250Y-84613750D03*
X122376250Y-84903750D03*
D12*
X122356250Y-85193750D02*
X122396250Y-84613750D01*
D11*
X136406250Y-85693750D03*
X135751251Y-86423750D03*
D12*
X135096250Y-87153750D02*
X136406252Y-85693750D01*
D11*
X141446250Y-84613750D03*
X141426250Y-84903750D03*
D12*
X141406250Y-85193750D02*
X141446250Y-84613750D01*
D11*
X155456250Y-85693750D03*
X154801251Y-86423750D03*
D12*
X154146250Y-87153750D02*
X155456252Y-85693750D01*
D11*
X160496250Y-84613750D03*
X160476250Y-84903750D03*
D12*
X160456250Y-85193750D02*
X160496250Y-84613750D01*
D11*
X174506250Y-85693750D03*
X173851251Y-86423750D03*
D12*
X173196250Y-87153750D02*
X174506252Y-85693750D01*
D11*
X179546250Y-84613750D03*
X179526250Y-84903750D03*
D12*
X179506250Y-85193750D02*
X179546250Y-84613750D01*
D11*
X193556250Y-85693750D03*
X192901251Y-86423750D03*
D12*
X192246250Y-87153750D02*
X193556252Y-85693750D01*
D11*
X198596250Y-84613750D03*
X198576250Y-84903750D03*
D12*
X198556250Y-85193750D02*
X198596250Y-84613750D01*
D11*
X212606250Y-85693750D03*
X211951251Y-86423750D03*
D12*
X211296250Y-87153750D02*
X212606252Y-85693750D01*
D11*
X217646250Y-84613750D03*
X217626250Y-84903750D03*
D12*
X217606250Y-85193750D02*
X217646250Y-84613750D01*
D11*
X231656250Y-85693750D03*
X231001251Y-86423750D03*
D12*
X230346250Y-87153750D02*
X231656252Y-85693750D01*
D11*
X236696250Y-84613750D03*
X236676250Y-84903750D03*
D12*
X236656250Y-85193750D02*
X236696250Y-84613750D01*
D11*
X250706250Y-85693750D03*
X250051251Y-86423750D03*
D12*
X249396250Y-87153750D02*
X250706252Y-85693750D01*
D11*
X255746250Y-84613750D03*
X255726250Y-84903750D03*
D12*
X255706250Y-85193750D02*
X255746250Y-84613750D01*
D11*
X269756250Y-85693750D03*
X269101251Y-86423750D03*
D12*
X268446250Y-87153750D02*
X269756252Y-85693750D01*
D11*
X274796250Y-84613750D03*
X274776250Y-84903750D03*
D12*
X274756250Y-85193750D02*
X274796250Y-84613750D01*
D11*
X31631250Y-104743750D03*
X30976251Y-105473750D03*
D12*
X30321250Y-106203750D02*
X31631252Y-104743750D01*
D11*
X36671250Y-103663750D03*
X36651250Y-103953750D03*
D12*
X36631250Y-104243750D02*
X36671250Y-103663750D01*
D11*
X50681250Y-104743750D03*
X50026251Y-105473750D03*
D12*
X49371250Y-106203750D02*
X50681252Y-104743750D01*
D11*
X55721250Y-103663750D03*
X55701250Y-103953750D03*
D12*
X55681250Y-104243750D02*
X55721250Y-103663750D01*
D11*
X69731250Y-104743750D03*
X69076251Y-105473750D03*
D12*
X68421250Y-106203750D02*
X69731252Y-104743750D01*
D11*
X74771250Y-103663750D03*
X74751250Y-103953750D03*
D12*
X74731250Y-104243750D02*
X74771250Y-103663750D01*
D11*
X88781250Y-104743750D03*
X88126251Y-105473750D03*
D12*
X87471250Y-106203750D02*
X88781252Y-104743750D01*
D11*
X93821250Y-103663750D03*
X93801250Y-103953750D03*
D12*
X93781250Y-104243750D02*
X93821250Y-103663750D01*
D11*
X107831250Y-104743750D03*
X107176251Y-105473750D03*
D12*
X106521250Y-106203750D02*
X107831252Y-104743750D01*
D11*
X112871250Y-103663750D03*
X112851250Y-103953750D03*
D12*
X112831250Y-104243750D02*
X112871250Y-103663750D01*
D11*
X126881250Y-104743750D03*
X126226251Y-105473750D03*
D12*
X125571250Y-106203750D02*
X126881252Y-104743750D01*
D11*
X131921250Y-103663750D03*
X131901250Y-103953750D03*
D12*
X131881250Y-104243750D02*
X131921250Y-103663750D01*
D11*
X145931970Y-104743590D03*
X145276971Y-105473590D03*
D12*
X144621970Y-106203590D02*
X145931972Y-104743590D01*
D11*
X150971970Y-103663590D03*
X150951970Y-103953590D03*
D12*
X150931970Y-104243590D02*
X150971970Y-103663590D01*
D11*
X164981250Y-104743750D03*
X164326251Y-105473750D03*
D12*
X163671250Y-106203750D02*
X164981252Y-104743750D01*
D11*
X170021250Y-103663750D03*
X170001250Y-103953750D03*
D12*
X169981250Y-104243750D02*
X170021250Y-103663750D01*
D11*
X184031250Y-104743750D03*
X183376251Y-105473750D03*
D12*
X182721250Y-106203750D02*
X184031252Y-104743750D01*
D11*
X189071250Y-103663750D03*
X189051250Y-103953750D03*
D12*
X189031250Y-104243750D02*
X189071250Y-103663750D01*
D11*
X203081250Y-104743750D03*
X202426251Y-105473750D03*
D12*
X201771250Y-106203750D02*
X203081252Y-104743750D01*
D11*
X208121250Y-103663750D03*
X208101250Y-103953750D03*
D12*
X208081250Y-104243750D02*
X208121250Y-103663750D01*
D11*
X222131250Y-104743750D03*
X221476251Y-105473750D03*
D12*
X220821250Y-106203750D02*
X222131252Y-104743750D01*
D11*
X227171250Y-103663750D03*
X227151250Y-103953750D03*
D12*
X227131250Y-104243750D02*
X227171250Y-103663750D01*
D11*
X241181250Y-104743750D03*
X240526251Y-105473750D03*
D12*
X239871250Y-106203750D02*
X241181252Y-104743750D01*
D11*
X246221250Y-103663750D03*
X246201250Y-103953750D03*
D12*
X246181250Y-104243750D02*
X246221250Y-103663750D01*
D11*
X260231250Y-104743750D03*
X259576251Y-105473750D03*
D12*
X258921250Y-106203750D02*
X260231252Y-104743750D01*
D11*
X265271250Y-103663750D03*
X265251250Y-103953750D03*
D12*
X265231250Y-104243750D02*
X265271250Y-103663750D01*
D11*
X41156250Y-123793750D03*
X40501251Y-124523750D03*
D12*
X39846250Y-125253750D02*
X41156252Y-123793750D01*
D11*
X46196250Y-122713750D03*
X46176250Y-123003750D03*
D12*
X46156250Y-123293750D02*
X46196250Y-122713750D01*
D11*
X60206250Y-123793750D03*
X59551251Y-124523750D03*
D12*
X58896250Y-125253750D02*
X60206252Y-123793750D01*
D11*
X65246250Y-122713750D03*
X65226250Y-123003750D03*
D12*
X65206250Y-123293750D02*
X65246250Y-122713750D01*
D11*
X79256250Y-123793750D03*
X78601251Y-124523750D03*
D12*
X77946250Y-125253750D02*
X79256252Y-123793750D01*
D11*
X84296250Y-122713750D03*
X84276250Y-123003750D03*
D12*
X84256250Y-123293750D02*
X84296250Y-122713750D01*
D11*
X98306250Y-123793750D03*
X97651251Y-124523750D03*
D12*
X96996250Y-125253750D02*
X98306252Y-123793750D01*
D11*
X103346250Y-122713750D03*
X103326250Y-123003750D03*
D12*
X103306250Y-123293750D02*
X103346250Y-122713750D01*
D11*
X117356250Y-123793750D03*
X116701251Y-124523750D03*
D12*
X116046250Y-125253750D02*
X117356252Y-123793750D01*
D11*
X122396250Y-122713750D03*
X122376250Y-123003750D03*
D12*
X122356250Y-123293750D02*
X122396250Y-122713750D01*
D11*
X136406250Y-123793750D03*
X135751251Y-124523750D03*
D12*
X135096250Y-125253750D02*
X136406252Y-123793750D01*
D11*
X141446250Y-122713750D03*
X141426250Y-123003750D03*
D12*
X141406250Y-123293750D02*
X141446250Y-122713750D01*
D11*
X155456250Y-123793750D03*
X154801251Y-124523750D03*
D12*
X154146250Y-125253750D02*
X155456252Y-123793750D01*
D11*
X160496250Y-122713750D03*
X160476250Y-123003750D03*
D12*
X160456250Y-123293750D02*
X160496250Y-122713750D01*
D11*
X174506250Y-123793750D03*
X173851251Y-124523750D03*
D12*
X173196250Y-125253750D02*
X174506252Y-123793750D01*
D11*
X179546250Y-122713750D03*
X179526250Y-123003750D03*
D12*
X179506250Y-123293750D02*
X179546250Y-122713750D01*
D11*
X193556250Y-123793750D03*
X192901251Y-124523750D03*
D12*
X192246250Y-125253750D02*
X193556252Y-123793750D01*
D11*
X198596250Y-122713750D03*
X198576250Y-123003750D03*
D12*
X198556250Y-123293750D02*
X198596250Y-122713750D01*
D11*
X212606250Y-123793750D03*
X211951251Y-124523750D03*
D12*
X211296250Y-125253750D02*
X212606252Y-123793750D01*
D11*
X217646250Y-122713750D03*
X217626250Y-123003750D03*
D12*
X217606250Y-123293750D02*
X217646250Y-122713750D01*
D11*
X231656250Y-123793750D03*
X231001251Y-124523750D03*
D12*
X230346250Y-125253750D02*
X231656252Y-123793750D01*
D11*
X236696250Y-122713750D03*
X236676250Y-123003750D03*
D12*
X236656250Y-123293750D02*
X236696250Y-122713750D01*
D11*
X250706250Y-123793750D03*
X250051251Y-124523750D03*
D12*
X249396250Y-125253750D02*
X250706252Y-123793750D01*
D11*
X255746250Y-122713750D03*
X255726250Y-123003750D03*
D12*
X255706250Y-123293750D02*
X255746250Y-122713750D01*
D13*
X46656250Y-53806250D03*
X46656250Y-56906250D03*
X65706250Y-53806250D03*
X65706250Y-56906250D03*
X84756250Y-53806250D03*
X84756250Y-56906250D03*
X103806250Y-53806250D03*
X103806250Y-56906250D03*
X122856250Y-53806250D03*
X122856250Y-56906250D03*
X141906250Y-53806250D03*
X141906250Y-56906250D03*
X160956250Y-53806250D03*
X160956250Y-56906250D03*
X180006250Y-53806250D03*
X180006250Y-56906250D03*
X199056250Y-53806250D03*
X199056250Y-56906250D03*
X218106250Y-53806250D03*
X218106250Y-56906250D03*
X237156250Y-53806250D03*
X237156250Y-56906250D03*
X256206250Y-53806250D03*
X256206250Y-56906250D03*
X37131250Y-72856250D03*
X37131250Y-75956250D03*
X56181250Y-72856250D03*
X56181250Y-75956250D03*
X75231250Y-72856250D03*
X75231250Y-75956250D03*
X94281250Y-72856250D03*
X94281250Y-75956250D03*
X113331250Y-72856250D03*
X113331250Y-75956250D03*
X132381250Y-72856250D03*
X132381250Y-75956250D03*
X151431250Y-72856250D03*
X151431250Y-75956250D03*
X170481250Y-72856250D03*
X170481250Y-75956250D03*
X189531250Y-72856250D03*
X189531250Y-75956250D03*
X208581250Y-72856250D03*
X208581250Y-75956250D03*
X227631250Y-72856250D03*
X227631250Y-75956250D03*
X246681250Y-72856250D03*
X246681250Y-75956250D03*
X265731250Y-72856250D03*
X265731250Y-75956250D03*
X27606250Y-91906250D03*
X27606250Y-95006250D03*
X46656250Y-91906250D03*
X46656250Y-95006250D03*
X65706250Y-91906250D03*
X65706250Y-95006250D03*
X84756250Y-91906250D03*
X84756250Y-95006250D03*
X103806250Y-91906250D03*
X103806250Y-95006250D03*
X122856250Y-91906250D03*
X122856250Y-95006250D03*
X141906250Y-91906250D03*
X141906250Y-95006250D03*
X160956250Y-91906250D03*
X160956250Y-95006250D03*
X180006250Y-91906250D03*
X180006250Y-95006250D03*
X199056250Y-91906250D03*
X199056250Y-95006250D03*
X218106250Y-91906250D03*
X218106250Y-95006250D03*
X237156250Y-91906250D03*
X237156250Y-95006250D03*
X256206250Y-91906250D03*
X256206250Y-95006250D03*
X275256250Y-91906250D03*
X275256250Y-95006250D03*
X37131250Y-110956250D03*
X37131250Y-114056250D03*
X56181250Y-110956250D03*
X56181250Y-114056250D03*
X75231250Y-110956250D03*
X75231250Y-114056250D03*
X94281250Y-110956250D03*
X94281250Y-114056250D03*
X113331250Y-110956250D03*
X113331250Y-114056250D03*
X132381250Y-110956250D03*
X132381250Y-114056250D03*
X151431970Y-110956090D03*
X151431970Y-114056090D03*
X170481250Y-110956250D03*
X170481250Y-114056250D03*
X189531250Y-110956250D03*
X189531250Y-114056250D03*
X208581250Y-110956250D03*
X208581250Y-114056250D03*
X227631250Y-110956250D03*
X227631250Y-114056250D03*
X246681250Y-110956250D03*
X246681250Y-114056250D03*
X265731250Y-110956250D03*
X265731250Y-114056250D03*
X46656250Y-130006250D03*
X46656250Y-133106250D03*
X65706250Y-130006250D03*
X65706250Y-133106250D03*
X84756250Y-130006250D03*
X84756250Y-133106250D03*
X103806250Y-130006250D03*
X103806250Y-133106250D03*
X122856250Y-130006250D03*
X122856250Y-133106250D03*
X141906250Y-130006250D03*
X141906250Y-133106250D03*
X160956250Y-130006250D03*
X160956250Y-133106250D03*
X180006250Y-130006250D03*
X180006250Y-133106250D03*
X199056250Y-130006250D03*
X199056250Y-133106250D03*
X218106250Y-130006250D03*
X218106250Y-133106250D03*
X237156250Y-130006250D03*
X237156250Y-133106250D03*
X256206250Y-130006250D03*
X256206250Y-133106250D03*
D14*
X46656250Y-47593750D02*
X46656250Y-53706250D01*
X46156250Y-47093750D02*
X46656250Y-47593750D01*
X65206250Y-47093750D02*
X65706250Y-47593750D01*
X65706250Y-47593750D02*
X65706250Y-53706250D01*
X84256250Y-47093750D02*
X84756250Y-47593750D01*
X84756250Y-47593750D02*
X84756250Y-53706250D01*
X103306250Y-47093750D02*
X103806250Y-47593750D01*
X103806250Y-47593750D02*
X103806250Y-53706250D01*
X122356250Y-47093750D02*
X122856250Y-47593750D01*
X122856250Y-47593750D02*
X122856250Y-53706250D01*
X141406250Y-47093750D02*
X141906250Y-47593750D01*
X141906250Y-47593750D02*
X141906250Y-53706250D01*
X160456250Y-47093750D02*
X160956250Y-47593750D01*
X160956250Y-47593750D02*
X160956250Y-53706250D01*
X179506250Y-47093750D02*
X180006250Y-47593750D01*
X180006250Y-47593750D02*
X180006250Y-53706250D01*
X198556250Y-47093750D02*
X199056250Y-47593750D01*
X199056250Y-47593750D02*
X199056250Y-53706250D01*
X217606250Y-47093750D02*
X218106250Y-47593750D01*
X218106250Y-47593750D02*
X218106250Y-53706250D01*
X236656250Y-47093750D02*
X237156250Y-47593750D01*
X237156250Y-47593750D02*
X237156250Y-53706250D01*
X255706250Y-47093750D02*
X256206250Y-47593750D01*
X256206250Y-47593750D02*
X256206250Y-53706250D01*
X37131250Y-66643750D02*
X37131250Y-72756250D01*
X36631250Y-66143750D02*
X37131250Y-66643750D01*
X55681250Y-66143750D02*
X56181250Y-66643750D01*
X56181250Y-66643750D02*
X56181250Y-72756250D01*
X75231250Y-66643750D02*
X75231250Y-72756250D01*
X74731250Y-66143750D02*
X75231250Y-66643750D01*
X94281250Y-66643750D02*
X94281250Y-72756250D01*
X93781250Y-66143750D02*
X94281250Y-66643750D01*
X113331250Y-66643750D02*
X113331250Y-72756250D01*
X112831250Y-66143750D02*
X113331250Y-66643750D01*
X132381250Y-66643750D02*
X132381250Y-72756250D01*
X131881250Y-66143750D02*
X132381250Y-66643750D01*
X151431250Y-66643750D02*
X151431250Y-72756250D01*
X150931250Y-66143750D02*
X151431250Y-66643750D01*
X169981250Y-66143750D02*
X170481250Y-66643750D01*
X170481250Y-66643750D02*
X170481250Y-72756250D01*
X189031250Y-66143750D02*
X189531250Y-66643750D01*
X189531250Y-66643750D02*
X189531250Y-72756250D01*
X208081250Y-66143750D02*
X208581250Y-66643750D01*
X208581250Y-66643750D02*
X208581250Y-72756250D01*
X227131250Y-66143750D02*
X227631250Y-66643750D01*
X227631250Y-66643750D02*
X227631250Y-72756250D01*
X246681250Y-66643750D02*
X246681250Y-72756250D01*
X246181250Y-66143750D02*
X246681250Y-66643750D01*
X265231250Y-66143750D02*
X265731250Y-66643750D01*
X265731250Y-66643750D02*
X265731250Y-72756250D01*
X27106250Y-85193750D02*
X27606250Y-85693750D01*
X27606250Y-85693750D02*
X27606250Y-91806250D01*
X46156250Y-85193750D02*
X46656250Y-85693750D01*
X46656250Y-85693750D02*
X46656250Y-91806250D01*
X65206250Y-85193750D02*
X65706250Y-85693750D01*
X65706250Y-85693750D02*
X65706250Y-91806250D01*
X84256250Y-85193750D02*
X84756250Y-85693750D01*
X84756250Y-85693750D02*
X84756250Y-91806250D01*
X103306250Y-85193750D02*
X103806250Y-85693750D01*
X103806250Y-85693750D02*
X103806250Y-91806250D01*
X122356250Y-85193750D02*
X122856250Y-85693750D01*
X122856250Y-85693750D02*
X122856250Y-91806250D01*
X141406250Y-85193750D02*
X141906250Y-85693750D01*
X141906250Y-85693750D02*
X141906250Y-91806250D01*
X160456250Y-85193750D02*
X160956250Y-85693750D01*
X160956250Y-85693750D02*
X160956250Y-91806250D01*
X179506250Y-85193750D02*
X180006250Y-85693750D01*
X180006250Y-85693750D02*
X180006250Y-91806250D01*
X199056250Y-85693750D02*
X199056250Y-91806250D01*
X198556250Y-85193750D02*
X199056250Y-85693750D01*
X218106250Y-85693750D02*
X218106250Y-91806250D01*
X217606250Y-85193750D02*
X218106250Y-85693750D01*
X237156250Y-85693750D02*
X237156250Y-91806250D01*
X236656250Y-85193750D02*
X237156250Y-85693750D01*
X256206250Y-85693750D02*
X256206250Y-91806250D01*
X255706250Y-85193750D02*
X256206250Y-85693750D01*
X274756250Y-85193750D02*
X275256250Y-85693750D01*
X275256250Y-85693750D02*
X275256250Y-91806250D01*
X37131250Y-104743750D02*
X37131250Y-110856250D01*
X36631250Y-104243750D02*
X37131250Y-104743750D01*
X56181250Y-104743750D02*
X56181250Y-110856250D01*
X55681250Y-104243750D02*
X56181250Y-104743750D01*
X74731250Y-104243750D02*
X75231250Y-104743750D01*
X75231250Y-104743750D02*
X75231250Y-110856250D01*
X93781250Y-104243750D02*
X94281250Y-104743750D01*
X94281250Y-104743750D02*
X94281250Y-110856250D01*
X112831250Y-104243750D02*
X113331250Y-104743750D01*
X113331250Y-104743750D02*
X113331250Y-110856250D01*
X132381250Y-104743750D02*
X132381250Y-110856250D01*
X131881250Y-104243750D02*
X132381250Y-104743750D01*
X150931250Y-104243750D02*
X151431250Y-104743750D01*
X151431250Y-104743750D02*
X151431250Y-110856250D01*
X170481250Y-104743750D02*
X170481250Y-110856250D01*
X169981250Y-104243750D02*
X170481250Y-104743750D01*
X189031250Y-104243750D02*
X189531250Y-104743750D01*
X189531250Y-104743750D02*
X189531250Y-110856250D01*
X208081250Y-104243750D02*
X208581250Y-104743750D01*
X208581250Y-104743750D02*
X208581250Y-110856250D01*
X227631250Y-104743750D02*
X227631250Y-110856250D01*
X227131250Y-104243750D02*
X227631250Y-104743750D01*
X246181250Y-104243750D02*
X246681250Y-104743750D01*
X246681250Y-104743750D02*
X246681250Y-110856250D01*
X265731250Y-104743750D02*
X265731250Y-110856250D01*
X265231250Y-104243750D02*
X265731250Y-104743750D01*
X46656250Y-123793750D02*
X46656250Y-129906250D01*
X46156250Y-123293750D02*
X46656250Y-123793750D01*
X65706250Y-123793750D02*
X65706250Y-129906250D01*
X65206250Y-123293750D02*
X65706250Y-123793750D01*
X84256250Y-123293750D02*
X84756250Y-123793750D01*
X84756250Y-123793750D02*
X84756250Y-129906250D01*
X103306250Y-123293750D02*
X103806250Y-123793750D01*
X103806250Y-123793750D02*
X103806250Y-129906250D01*
X122356250Y-123293750D02*
X122856250Y-123793750D01*
X122856250Y-123793750D02*
X122856250Y-129906250D01*
X141906250Y-123793750D02*
X141906250Y-129906250D01*
X141406250Y-123293750D02*
X141906250Y-123793750D01*
X160456250Y-123293750D02*
X160956250Y-123793750D01*
X160956250Y-123793750D02*
X160956250Y-129906250D01*
X180006250Y-123793750D02*
X180006250Y-129906250D01*
X179506250Y-123293750D02*
X180006250Y-123793750D01*
X199056250Y-123793750D02*
X199056250Y-129906250D01*
X198556250Y-123293750D02*
X199056250Y-123793750D01*
X218106250Y-123793750D02*
X218106250Y-129906250D01*
X217606250Y-123293750D02*
X218106250Y-123793750D01*
X237156250Y-123793750D02*
X237156250Y-129906250D01*
X236656250Y-123293750D02*
X237156250Y-123793750D01*
X255706250Y-123293750D02*
X256206250Y-123793750D01*
X256206250Y-123793750D02*
X256206250Y-129906250D01*
X46656250Y-57006250D02*
X256206250Y-57006250D01*
X258859752Y-57006250D02*
X257056250Y-57006250D01*
X257056250Y-57006250D02*
X256206250Y-57006250D01*
X278536251Y-91976249D02*
X278536251Y-76682749D01*
X275256250Y-95106250D02*
X275406250Y-95106250D01*
X275406250Y-95106250D02*
X278536251Y-91976249D01*
X278536251Y-76682749D02*
X258859752Y-57006250D01*
X44131250Y-57006250D02*
X46656250Y-57006250D01*
X38431250Y-62706250D02*
X44131250Y-57006250D01*
X39168750Y-76056250D02*
X265731250Y-76056250D01*
X37131250Y-76056250D02*
X39168750Y-76056250D01*
X37281250Y-76056250D02*
X37131250Y-76056250D01*
X40971250Y-72366250D02*
X37281250Y-76056250D01*
X40971250Y-62706250D02*
X40971250Y-72366250D01*
X27606250Y-95106250D02*
X35193750Y-95106250D01*
X35193750Y-95106250D02*
X256206250Y-95106250D01*
X27606250Y-94406250D02*
X27606250Y-95106250D01*
X30886251Y-91126249D02*
X27606250Y-94406250D01*
X30886251Y-82926249D02*
X30886251Y-91126249D01*
X35891250Y-77921250D02*
X30886251Y-82926249D01*
X28271250Y-62706250D02*
X18326249Y-72651251D01*
X18326249Y-72651251D02*
X18326249Y-99794751D01*
X37131250Y-114156250D02*
X265731250Y-114156250D01*
X32687748Y-114156250D02*
X32040749Y-113509251D01*
X37131250Y-114156250D02*
X32687748Y-114156250D01*
X18326249Y-99794751D02*
X32040749Y-113509251D01*
X32040749Y-113509251D02*
X32625248Y-114093750D01*
X50093750Y-133206250D02*
X256206250Y-133206250D01*
X46656250Y-133206250D02*
X50093750Y-133206250D01*
X46656250Y-133206250D02*
X45764752Y-133206250D01*
X45764752Y-133188150D02*
X39438301Y-126861699D01*
X45764752Y-133206250D02*
X45764752Y-133188150D01*
X38396859Y-126222181D02*
X38487339Y-126312661D01*
X38396859Y-120501771D02*
X38396859Y-126222181D01*
X39438301Y-126861699D02*
X38487339Y-126312661D01*
X25731250Y-64609840D02*
X17876239Y-72464851D01*
X25731250Y-62706250D02*
X25731250Y-64609840D01*
X17876239Y-72464851D02*
X17876240Y-99981152D01*
X17876240Y-99981152D02*
X38396859Y-120501771D01*
X43511250Y-62706250D02*
X45368759Y-64563759D01*
X48601259Y-64563759D02*
X50681250Y-66643750D01*
X45368759Y-64563759D02*
X48601259Y-64563759D01*
X68606251Y-65518751D02*
X69731250Y-66643750D01*
X67201249Y-64113749D02*
X68606251Y-65518751D01*
X47458749Y-64113749D02*
X67201249Y-64113749D01*
X46051250Y-62706250D02*
X47458749Y-64113749D01*
X87656251Y-65518751D02*
X88781250Y-66643750D01*
X83231250Y-61093750D02*
X87656251Y-65518751D01*
X55283750Y-61093750D02*
X83231250Y-61093750D01*
X53671250Y-62706250D02*
X55283750Y-61093750D01*
X106706251Y-65518751D02*
X107831250Y-66643750D01*
X101831240Y-60643740D02*
X106706251Y-65518751D01*
X53193760Y-60643740D02*
X101831240Y-60643740D01*
X51131250Y-62706250D02*
X53193760Y-60643740D01*
X125756251Y-65518751D02*
X126881250Y-66643750D01*
X120431231Y-60193731D02*
X125756251Y-65518751D01*
X51103769Y-60193731D02*
X120431231Y-60193731D01*
X48591250Y-62706250D02*
X51103769Y-60193731D01*
X135281251Y-84568751D02*
X136406250Y-85693750D01*
X132508810Y-81796310D02*
X135281251Y-84568751D01*
X42306310Y-81796310D02*
X132508810Y-81796310D01*
X38431250Y-77921250D02*
X42306310Y-81796310D01*
X44396299Y-81346299D02*
X46299890Y-81346300D01*
X40971250Y-77921250D02*
X44396299Y-81346299D01*
X151108800Y-81346300D02*
X155456250Y-85693750D01*
X46299890Y-81346300D02*
X151108800Y-81346300D01*
X173381251Y-84568751D02*
X174506250Y-85693750D01*
X169708790Y-80896290D02*
X173381251Y-84568751D01*
X46486290Y-80896290D02*
X169708790Y-80896290D01*
X43511250Y-77921250D02*
X46486290Y-80896290D01*
X192431251Y-84568751D02*
X193556250Y-85693750D01*
X188308780Y-80446280D02*
X192431251Y-84568751D01*
X48576280Y-80446280D02*
X188308780Y-80446280D01*
X46051250Y-77921250D02*
X48576280Y-80446280D01*
X211481251Y-84568751D02*
X212606250Y-85693750D01*
X206908771Y-79996271D02*
X211481251Y-84568751D01*
X50666271Y-79996271D02*
X206908771Y-79996271D01*
X48591250Y-77921250D02*
X50666271Y-79996271D01*
X52005000Y-78795000D02*
X51131250Y-77921250D01*
X52756261Y-79546261D02*
X52005000Y-78795000D01*
X225508761Y-79546261D02*
X52756261Y-79546261D01*
X231656250Y-85693750D02*
X225508761Y-79546261D01*
X249581251Y-84568751D02*
X250706250Y-85693750D01*
X244108751Y-79096251D02*
X249581251Y-84568751D01*
X54846251Y-79096251D02*
X244108751Y-79096251D01*
X53671250Y-77921250D02*
X54846251Y-79096251D01*
M02*
